Walking01_kinetics.mot
version=1
nRows=40
nColumns=19
inDegrees=yes
endheader
time	1_ground_force_vx	1_ground_force_vy	1_ground_force_vz	1_ground_force_px	1_ground_force_py	1_ground_force_pz	2_ground_force_vx	2_ground_force_vy	2_ground_force_vz	2_ground_force_px	2_ground_force_py	2_ground_force_pz	1_ground_torque_x	1_ground_torque_y	1_ground_torque_z	2_ground_torque_x	2_ground_torque_y	2_ground_torque_z
  0.00000000	-39.73501160	253.61787907	  2.11419751	 -0.52835973	 -0.00019825	  0.09019736	  0.00000000	  0.00000000	  0.00000000	  0.30181907	  0.00246885	 -0.10097818	 -0.00105891	 -0.81805874	  0.00052078	  0.00000000	  0.00000000	  0.00000000
  0.00100000	-44.08991546	277.98502614	  3.53923703	 -0.52567443	 -0.00020103	  0.09128941	  0.00000000	  0.00000000	  0.00000000	  0.30181907	  0.00246885	 -0.10097818	 -0.00098973	 -0.76461677	  0.00048676	  0.00000000	  0.00000000	  0.00000000
  0.00200000	-48.45528776	300.69850731	  4.97450391	 -0.52314671	 -0.00020367	  0.09228327	  0.00000000	  0.00000000	  0.00000000	  0.30181907	  0.00246885	 -0.10097818	 -0.00092811	 -0.71701430	  0.00045645	  0.00000000	  0.00000000	  0.00000000
  0.00300000	-52.74861523	320.63312451	  6.39667113	 -0.52092057	 -0.00020603	  0.09310269	  0.00000000	  0.00000000	  0.00000000	  0.30181907	  0.00246885	 -0.10097818	 -0.00087848	 -0.67867197	  0.00043204	  0.00000000	  0.00000000	  0.00000000
  0.00400000	-56.90258996	337.08753897	  7.78378519	 -0.51906290	 -0.00020805	  0.09371477	  0.00000000	  0.00000000	  0.00000000	  0.30181907	  0.00246885	 -0.10097818	 -0.00084367	 -0.65177876	  0.00041492	  0.00000000	  0.00000000	  0.00000000
  0.00500000	-60.86813165	349.84104820	  9.11619391	 -0.51756497	 -0.00020972	  0.09412901	  0.00000000	  0.00000000	  0.00000000	  0.30181907	  0.00246885	 -0.10097818	 -0.00082482	 -0.63721463	  0.00040565	  0.00000000	  0.00000000	  0.00000000
  0.00600000	-64.61522564	359.09157334	 10.37802744	 -0.51637265	 -0.00021111	  0.09438006	  0.00000000	  0.00000000	  0.00000000	  0.30181907	  0.00246885	 -0.10097818	 -0.00082180	 -0.63488281	  0.00040417	  0.00000000	  0.00000000	  0.00000000
  0.00700000	-68.13215474	365.33727768	 11.55867839	 -0.51542027	 -0.00021226	  0.09450834	  0.00000000	  0.00000000	  0.00000000	  0.30181907	  0.00246885	 -0.10097818	 -0.00083368	 -0.64406254	  0.00041001	  0.00000000	  0.00000000	  0.00000000
  0.00800000	-71.42340727	369.25170636	 12.65372554	 -0.51464923	 -0.00021323	  0.09454934	  0.00000000	  0.00000000	  0.00000000	  0.30181907	  0.00246885	 -0.10097818	 -0.00085886	 -0.66351143	  0.00042239	  0.00000000	  0.00000000	  0.00000000
  0.00900000	-74.50628131	371.57351846	 13.66493462	 -0.51401203	 -0.00021407	  0.09453116	  0.00000000	  0.00000000	  0.00000000	  0.30181907	  0.00246885	 -0.10097818	 -0.00089499	 -0.69142498	  0.00044016	  0.00000000	  0.00000000	  0.00000000
  0.01000000	-77.40592822	373.02076974	 14.59895463	 -0.51346817	 -0.00021480	  0.09447707	  0.00000000	  0.00000000	  0.00000000	  0.30181907	  0.00246885	 -0.10097818	 -0.00093907	 -0.72547710	  0.00046184	  0.00000000	  0.00000000	  0.00000000
  0.01100000	-80.14934225	374.22870351	 15.46483021	 -0.51297709	 -0.00021548	  0.09440966	  0.00000000	  0.00000000	  0.00000000	  0.30181907	  0.00246885	 -0.10097818	 -0.00098770	 -0.76304760	  0.00048576	  0.00000000	  0.00000000	  0.00000000
  0.01200000	-82.76020733	375.70332055	 16.27108903	 -0.51249711	 -0.00021614	  0.09435182	  0.00000000	  0.00000000	  0.00000000	  0.30181907	  0.00246885	 -0.10097818	 -0.00103776	 -0.80172001	  0.00051038	  0.00000000	  0.00000000	  0.00000000
  0.01300000	-85.25599114	377.78725770	 17.02309586	 -0.51199538	 -0.00021681	  0.09432121	  0.00000000	  0.00000000	  0.00000000	  0.30181907	  0.00246885	 -0.10097818	 -0.00108733	 -0.84001580	  0.00053476	  0.00000000	  0.00000000	  0.00000000
  0.01400000	-87.64693506	380.64566194	 17.72123044	 -0.51145979	 -0.00021750	  0.09432396	  0.00000000	  0.00000000	  0.00000000	  0.30181907	  0.00246885	 -0.10097818	 -0.00113639	 -0.87792062	  0.00055889	  0.00000000	  0.00000000	  0.00000000
  0.01500000	-89.93611864	384.28454614	 18.36041300	 -0.51089979	 -0.00021821	  0.09435514	  0.00000000	  0.00000000	  0.00000000	  0.30181907	  0.00246885	 -0.10097818	 -0.00118650	 -0.91663479	  0.00058353	  0.00000000	  0.00000000	  0.00000000
  0.01600000	-92.12017920	388.59756859	 18.93101975	 -0.51033545	 -0.00021890	  0.09440615	  0.00000000	  0.00000000	  0.00000000	  0.30181907	  0.00246885	 -0.10097818	 -0.00123953	 -0.95760325	  0.00060961	  0.00000000	  0.00000000	  0.00000000
  0.01700000	-94.19032156	393.41765373	 19.42079674	 -0.50978594	 -0.00021957	  0.09447158	  0.00000000	  0.00000000	  0.00000000	  0.30181907	  0.00246885	 -0.10097818	 -0.00129643	 -1.00155993	  0.00063760	  0.00000000	  0.00000000	  0.00000000
  0.01800000	-96.13336274	398.55576708	 19.81738042	 -0.50926522	 -0.00022020	  0.09455009	  0.00000000	  0.00000000	  0.00000000	  0.30181907	  0.00246885	 -0.10097818	 -0.00135674	 -1.04815000	  0.00066726	  0.00000000	  0.00000000	  0.00000000
  0.01900000	-97.93290479	403.82699094	 20.11094383	 -0.50878278	 -0.00022076	  0.09464166	  0.00000000	  0.00000000	  0.00000000	  0.30181907	  0.00246885	 -0.10097818	 -0.00141878	 -1.09607829	  0.00069777	  0.00000000	  0.00000000	  0.00000000
  0.02000000	-99.57082556	409.06938669	 20.29646058	 -0.50834381	 -0.00022127	  0.09474548	  0.00000000	  0.00000000	  0.00000000	  0.30181907	  0.00246885	 -0.10097818	 -0.00148025	 -1.14356826	  0.00072800	  0.00000000	  0.00000000	  0.00000000
  0.02100000	-101.02903896	414.15749876	 20.37533302	 -0.50794795	 -0.00022171	  0.09485974	  0.00000000	  0.00000000	  0.00000000	  0.30181907	  0.00246885	 -0.10097818	 -0.00153899	 -1.18894723	  0.00075689	  0.00000000	  0.00000000	  0.00000000
  0.02200000	-102.29107277	419.00924106	 20.35605863	 -0.50758860	 -0.00022209	  0.09498245	  0.00000000	  0.00000000	  0.00000000	  0.30181907	  0.00246885	 -0.10097818	 -0.00159344	 -1.23101203	  0.00078367	  0.00000000	  0.00000000	  0.00000000
  0.02300000	-103.34314511	423.58532887	 20.25365533	 -0.50725451	 -0.00022244	  0.09511277	  0.00000000	  0.00000000	  0.00000000	  0.30181907	  0.00246885	 -0.10097818	 -0.00164256	 -1.26896228	  0.00080783	  0.00000000	  0.00000000	  0.00000000
  0.02400000	-104.17507510	427.88338559	 20.08807539	 -0.50693259	 -0.00022277	  0.09525170	  0.00000000	  0.00000000	  0.00000000	  0.30181907	  0.00246885	 -0.10097818	 -0.00168555	 -1.30217088	  0.00082897	  0.00000000	  0.00000000	  0.00000000
  0.02500000	-104.78147811	431.92922854	 19.88188398	 -0.50661042	 -0.00022309	  0.09540181	  0.00000000	  0.00000000	  0.00000000	  0.30181907	  0.00246885	 -0.10097818	 -0.00172182	 -1.33019225	  0.00084681	  0.00000000	  0.00000000	  0.00000000
  0.02600000	-105.16335076	435.76738739	 19.65742029	 -0.50627794	 -0.00022342	  0.09556575	  0.00000000	  0.00000000	  0.00000000	  0.30181907	  0.00246885	 -0.10097818	 -0.00175138	 -1.35303190	  0.00086134	  0.00000000	  0.00000000	  0.00000000
  0.02700000	-105.32983625	439.45451839	 19.43396326	 -0.50592817	 -0.00022376	  0.09574518	  0.00000000	  0.00000000	  0.00000000	  0.30181907	  0.00246885	 -0.10097818	 -0.00177508	 -1.37134167	  0.00087300	  0.00000000	  0.00000000	  0.00000000
  0.02800000	-105.29980854	443.05800909	 19.22528732	 -0.50555682	 -0.00022411	  0.09594083	  0.00000000	  0.00000000	  0.00000000	  0.30181907	  0.00246885	 -0.10097818	 -0.00179443	 -1.38628717	  0.00088252	  0.00000000	  0.00000000	  0.00000000
  0.02900000	-105.10276193	446.65755579	 19.03754239	 -0.50516080	 -0.00022449	  0.09615341	  0.00000000	  0.00000000	  0.00000000	  0.30181907	  0.00246885	 -0.10097818	 -0.00181107	 -1.39914715	  0.00089070	  0.00000000	  0.00000000	  0.00000000
  0.03000000	-104.77832026	450.34618130	 18.86729088	 -0.50473570	 -0.00022489	  0.09638446	  0.00000000	  0.00000000	  0.00000000	  0.30181907	  0.00246885	 -0.10097818	 -0.00182614	 -1.41078663	  0.00089811	  0.00000000	  0.00000000	  0.00000000
  0.03100000	-104.37446956	454.22868806	 18.70004408	 -0.50427309	 -0.00022533	  0.09663700	  0.00000000	  0.00000000	  0.00000000	  0.30181907	  0.00246885	 -0.10097818	 -0.00183956	 -1.42115566	  0.00090471	  0.00000000	  0.00000000	  0.00000000
  0.03200000	-103.94571493	458.41561489	 18.51054024	 -0.50375987	 -0.00022582	  0.09691533	  0.00000000	  0.00000000	  0.00000000	  0.30181907	  0.00246885	 -0.10097818	 -0.00184989	 -1.42913782	  0.00090979	  0.00000000	  0.00000000	  0.00000000
  0.03300000	-103.55192081	463.01178685	 18.26557440	 -0.50318133	 -0.00022637	  0.09722415	  0.00000000	  0.00000000	  0.00000000	  0.30181907	  0.00246885	 -0.10097818	 -0.00185483	 -1.43294835	  0.00091222	  0.00000000	  0.00000000	  0.00000000
  0.03400000	-103.25731317	468.10252187	 17.92831585	 -0.50252583	 -0.00022700	  0.09756714	  0.00000000	  0.00000000	  0.00000000	  0.30181907	  0.00246885	 -0.10097818	 -0.00185205	 -1.43080554	  0.00091086	  0.00000000	  0.00000000	  0.00000000
  0.03500000	-103.12870014	473.74169253	 17.46259563	 -0.50178809	 -0.00022772	  0.09794558	  0.00000000	  0.00000000	  0.00000000	  0.30181907	  0.00246885	 -0.10097818	 -0.00183997	 -1.42147341	  0.00090491	  0.00000000	  0.00000000	  0.00000000
  0.03600000	-103.23238294	479.94343443	 16.83659072	 -0.50097029	 -0.00022851	  0.09835744	  0.00000000	  0.00000000	  0.00000000	  0.30181907	  0.00246885	 -0.10097818	 -0.00181803	 -1.40452348	  0.00089412	  0.00000000	  0.00000000	  0.00000000
  0.03700000	-103.62956441	486.67929578	 16.02543546	 -0.50008087	 -0.00022938	  0.09879747	  0.00000000	  0.00000000	  0.00000000	  0.30181907	  0.00246885	 -0.10097818	 -0.00178661	 -1.38024771	  0.00087867	  0.00000000	  0.00000000	  0.00000000
  0.03800000	-104.37054442	493.88201508	 15.01244053	 -0.49913139	 -0.00023032	  0.09925863	  0.00000000	  0.00000000	  0.00000000	  0.30181907	  0.00246885	 -0.10097818	 -0.00174645	 -1.34922534	  0.00085892	  0.00000000	  0.00000000	  0.00000000
  0.03900000	-105.48946595	501.45319925	 13.78945865	 -0.49813339	 -0.00023131	  0.09973399	  0.00000000	  0.00000000	  0.00000000	  0.30181907	  0.00246885	 -0.10097818	 -0.00169806	 -1.31183510	  0.00083512	  0.00000000	  0.00000000	  0.00000000
